<?xml version="1.0" standalone="no"?>
<!DOCTYPE svg PUBLIC "-//W3C//DTD SVG 20010904//EN"
 "http://www.w3.org/TR/2001/REC-SVG-20010904/DTD/svg10.dtd">
<svg version="1.0" xmlns="http://www.w3.org/2000/svg"
 width="500.000000pt" height="500.000000pt" viewBox="0 0 500.000000 500.000000"
 preserveAspectRatio="xMidYMid meet">
<metadata>
Created by potrace 1.14, written by Peter Selinger 2001-2017
</metadata>
<g transform="translate(0.000000,500.000000) scale(0.100000,-0.100000)"
fill="#000000" stroke="none">
<path d="M2339 4066 c-2 -2 -33 -7 -69 -10 -75 -8 -237 -48 -328 -82 -319
-120 -585 -333 -781 -626 -28 -42 -51 -79 -51 -82 0 -3 -12 -27 -28 -53 -57
-99 -115 -267 -148 -428 -22 -109 -27 -394 -9 -510 19 -121 23 -141 41 -205 9
-30 19 -68 23 -85 17 -64 84 -214 133 -300 179 -310 449 -543 780 -674 77 -30
202 -67 267 -77 18 -3 43 -8 55 -10 82 -18 324 -24 446 -11 84 8 121 15 195
34 33 8 67 16 75 18 44 9 204 72 265 103 175 90 287 172 420 306 255 258 414
594 450 951 8 80 8 264 0 315 -3 19 -7 52 -10 74 -2 21 -7 46 -9 55 -3 9 -7
34 -11 56 -16 111 -123 371 -204 500 -126 199 -340 410 -526 517 -184 107
-394 183 -590 214 -46 7 -379 16 -386 10z"/>
</g>
</svg>
